# xmcd CD database file
#
# Track frame offsets:
#	150
#	13815
#	29915
#	49600
#	78597
#	97202
#	116640
#	131210
#	152465
#	171192
#	190350
#	208007
#	225027
#	241312
#	259435
#	275660
#
# Disc length: 3919 seconds
#
# Revision: 6
# Processed by: cddbd v1.5.1PL0 Copyright (c) Steve Scherf et al.
# Submitted via: CDex 1.51
#
DISCID=e70f4d10
DTITLE=陳慧嫻 - 陳慧嫻32首選
DYEAR=1998
DGENRE=Blues
TTITLE0=問題女人
TTITLE1=飄
TTITLE2=我寂寞
TTITLE3=戀戀風塵
TTITLE4=我心不死
TTITLE5=今天的愛人是誰
TTITLE6=Jealousy (Live Version)
TTITLE7=月亮
TTITLE8=紅茶館
TTITLE9=七分愛情三分騙
TTITLE10=人生何處不相逢
TTITLE11=去吧
TTITLE12=痴情意外
TTITLE13=逝去的諾言
TTITLE14=Joe Le Taxi
TTITLE15=多少柔情多少夢
EXTD=YEAR: 1998
EXTT0=
EXTT1=
EXTT2=
EXTT3=
EXTT4=
EXTT5=
EXTT6=
EXTT7=
EXTT8=
EXTT9=
EXTT10=
EXTT11=
EXTT12=
EXTT13=
EXTT14=
EXTT15=
PLAYORDER=
